# AST/ASF file generated using VICON BodyLanguage
# -----------------------------------------------
:version 1.10
:name VICON
:units
  mass 1.0
  length 0.45
  angle deg
:documentation
   .ast/.asf automatically generated from VICON data using
   VICON BodyBuilder and BodyLanguage model FoxedUp or BRILLIANT.MOD
:root
   order TX TY TZ RX RY RZ
   axis XYZ
   position 0 0 0  
   orientation 0 0 0 
:bonedata
  begin
     id 1 
     name lhipjoint
     direction 0.589753 -0.68606 0.426044 
     length 2.54082 
     axis 0 0 0  XYZ
  end
  begin
     id 2 
     name lfemur
     direction 0.34202 -0.939693 0  
     length 7.04539  
     axis 0 0 20  XYZ
    dof rx ry rz
    limits (-160.0 20.0)
           (-70.0 70.0)
           (-60.0 70.0)
  end
  begin
     id 3 
     name ltibia
     direction 0.34202 -0.939693 0   
     length 7.83772   
     axis 0 0 20   XYZ
    dof rx
    limits (-10.0 170.0)
  end
  begin
     id 4 
     name lfoot
     direction 0.0596604 -0.163915 0.984669   
     length 2.39542   
     axis -90 7.62852e-016 20   XYZ
    dof rx rz
    limits (-45.0 90.0)
           (-70.0 20.0)
  end
  begin
     id 5 
     name ltoes
     direction 1.53514e-011 -4.21954e-011 1   
     length 1.2047   
     axis -90 7.62852e-016 20   XYZ
    dof rx
    limits (-90.0 20.0)
  end
  begin
     id 6 
     name rhipjoint
     direction -0.580585 -0.69168 0.429534   
     length 2.52018  
     axis 0 0 0  XYZ 
  end
  begin
     id 7 
     name rfemur
     direction -0.34202 -0.939693 0   
     length 7.0101   
     axis 0 0 -20   XYZ
    dof rx ry rz
    limits (-160.0 20.0)
           (-70.0 70.0)
           (-70.0 60.0)
  end
  begin
     id 8 
     name rtibia
     direction -0.34202 -0.939693 0   
     length 7.70628   
     axis 0 0 -20   XYZ
    dof rx
    limits (-10.0 170.0)
 end
 begin
     id 9 
     name rfoot
     direction -0.0696237 -0.19129 0.979061   
     length 2.52466  
     axis -90 -7.62852e-016 -20   XYZ
    dof rx rz
    limits (-45.0 90.0)
           (-20.0 70.0)
  end
  begin
     id 10 
     name rtoes
     direction -1.53519e-011 -4.21793e-011 1   
     length 1.266   
     axis -90 -7.62852e-016 -20   XYZ
    dof rx
    limits (-90.0 20.0)
  end
  begin
     id 11 
     name lowerback
     direction 0.00381965 0.995707 -0.0924856   
     length 2.20825   
     axis 0 0 0   XYZ
    dof rx ry rz
    limits (-20.0 45.0)
           (-30.0 30.0)
           (-30.0 30.0)
  end
  begin
     id 12 
     name upperback
     direction -0.0139043 0.999634 -0.0231929   
     length 2.21517   
     axis 0 0 0   XYZ
    dof rx ry rz
    limits (-20.0 45.0)
           (-30.0 30.0)
           (-30.0 30.0)
  end
  begin
     id 13 
     name thorax
     direction -0.0143933 0.999691 0.0202892   
     length 2.22911   
     axis 0 0 0   XYZ
    dof rx ry rz
    limits (-20.0 45.0)
           (-30.0 30.0)
           (-30.0 30.0)
  end
  begin
     id 14 
     name lowerneck
     direction -0.0251153 0.981819 0.188153   
     length 1.61782   
     axis 0 0 0   XYZ
    dof rx ry rz
    limits (-20.0 45.0)
           (-30.0 30.0)
           (-30.0 30.0)
  end
  begin
     id 15 
     name upperneck
     direction 0.0563891 0.969357 -0.239095   
     length 1.64526   
     axis 0 0 0   XYZ
    dof rx ry rz
    limits (-20.0 45.0)
           (-30.0 30.0)
           (-30.0 30.0)
  end
  begin
     id 16
     name head
     direction 0.0208328 0.99459 -0.101773  
     length 1.67436  
     axis 0 0 0   XYZ
    dof rx ry rz
    limits (-20.0 45.0)
           (-30.0 30.0)
           (-30.0 30.0)
  end
  begin
     id 17 
     name lclavicle
     direction 0.917689 0.397224 0.00772059  
     length 3.31102  
     axis 0 0 0   XYZ
    dof ry rz
    limits (-20.0 10.0)
           (0.0 20.0)
  end
  begin
     id 18 
     name lhumerus
     direction 1 -4.4896e-011 2.32308e-027   
     length 5.25537   
     axis 180 -30 -90   XYZ
    dof rx ry rz
    limits (-60.0 90.0)
           (-90.0 90.0)
           (-90.0 90.0)
  end
  begin
     id 19
     name lradius
     direction 1 -4.49005e-011 -2.04271e-027   
     length 3.38855   
     axis 180 -30 -90   XYZ
    dof rx
    limits (-10.0 170.0)
  end
  begin
     id 20
     name lwrist
     direction 1 -4.48892e-011 2.56952e-028   
     length 1.69428   
     axis -5.12785e-016 90 90   XYZ
    dof ry
    limits (-180.0 0.0)
 end
  begin
     id 21 
     name lhand
     direction 1 -4.48966e-011 5.13905e-028   
     length 0.614516   
     axis -3.27915e-016 90 90   XYZ
    dof rx rz
    limits (-90.0 90.0)
           (-45.0 45.0)
  end
  begin
     id 22 
     name lfingers
     direction 1 -4.48979e-011 1.02781e-027   
     length 0.495439   
     axis -6.5583e-016 90 90   XYZ
    dof rx
    limits (0.0 90.0)
  end
  begin
     id 23
     name lthumb
     direction 0.707107 -6.35001e-011 0.707107   
     length 0.711354   
     axis -90 45 2.85299e-015   XYZ
    dof rx rz
    limits (-45.0 45.0)
           (-45.0 45.0)
  end
  begin
     id 24 
     name rclavicle
     direction -0.938556 0.342765 -0.0403177   
     length 3.27019  
     axis 0 0 0   XYZ 
    dof ry rz
    limits (-10.0 20.0)
           (-20.0 0.0)
  end
  begin
     id 25 
     name rhumerus
     direction -1 -4.48966e-011 2.52291e-027  
     length 5.38183   
     axis 180 30 90   XYZ
    dof rx ry rz
    limits (-90.0 60.0)
           (-90.0 90.0)
           (-90.0 90.0)
  end
  begin
     id 26 
     name rradius
     direction -1 -4.4896e-011 1.5797e-027   
     length 3.16988   
     axis 180 30 90   XYZ
    dof rx
    limits (-10.0 170.0)
  end
  begin
     id 27 
     name rwrist
     direction -1 -4.48947e-011 2.56952e-028   
     length 1.58494   
     axis -5.12785e-016 -90 -90   XYZ
    dof ry
    limits (-180.0 0.0)
  end
  begin
     id 28
     name rhand
     direction -1 -4.49098e-011 5.13905e-028   
     length 0.637679   
     axis -3.27915e-016 -90 -90   XYZ
    dof rx rz
    limits (-90.0 90.0)
           (-45.0 45.0)
  end
  begin
     id 29
     name rfingers
     direction -1 -4.49026e-011 1.02781e-027   
     length 0.514113   
     axis -6.5583e-016 -90 -90   XYZ
    dof rx
    limits (0.0 90.0)
  end
  begin
     id 30
     name rthumb
     direction -0.707107 -6.3491e-011 0.707107   
     length 0.738167   
     axis -90 -45 -2.85299e-015   XYZ
    dof rx rz
    limits (-45.0 45.0)
           (-45.0 45.0)
  end
:hierarchy
  begin
    root lhipjoint rhipjoint lowerback
    lhipjoint lfemur
    lfemur ltibia
    ltibia lfoot
    lfoot ltoes
    rhipjoint rfemur
    rfemur rtibia
    rtibia rfoot
    rfoot rtoes
    lowerback upperback
    upperback thorax
    thorax lowerneck lclavicle rclavicle
    lowerneck upperneck
    upperneck head
    lclavicle lhumerus
    lhumerus lradius
    lradius lwrist
    lwrist lhand lthumb
    lhand lfingers
    rclavicle rhumerus
    rhumerus rradius
    rradius rwrist
    rwrist rhand rthumb
    rhand rfingers
  end

#!OML:ASF H:\Swim\Project 1\Capture day 1\Session 1\swimmer.ASF
:FULLY-SPECIFIED
:DEGREES
2748
root 5.9126 11.629 21.2601 87.5504 -4.04461 -7.10229
lowerback 1.82823 -5.30045 -1.66196
upperback -6.25337 -7.44758 -0.927345
thorax -7.47436 -3.67257 0.569407
lowerneck -6.48186 3.32877 -7.78787
upperneck 1.01118 4.65489 24.9545
head 0.636748 2.69056 9.19375
rclavicle -4.13472e-014 1.19271e-014
rhumerus 408.11 -25.1934 361.183
rradius 74.9919
rwrist -32.7593
rhand 6.1718 -2.88824
rfingers 7.12502
rthumb 31.487 -390.196
lclavicle -4.13472e-014 1.19271e-014
lhumerus 12.053 -40.8099 6.67986
lradius 77.88
lwrist 6.93137
lhand -18.9401 -707.05
lfingers 7.12502
lthumb 7.36301 42.8016
rfemur -23.285 7.09882 21.32
rtibia 38.3785
rfoot -1.62165 -8.43488
rtoes -5.41593
lfemur -13.081 0.380571 -22.577
ltibia 32.6532
lfoot 5.74539 9.00194
ltoes 2.74954
2749
root 5.9009 11.6268 21.2532 87.4577 -3.89861 -7.0012
lowerback 1.94834 -4.87593 -1.10425
upperback -6.21465 -6.85947 -1.28866
thorax -7.62042 -3.4208 -0.14272
lowerneck -6.55228 2.84114 -7.70333
upperneck 0.901462 3.97434 25.3729
head 0.734538 2.35527 9.32466
rclavicle 6.67916e-014 -1.03368e-014
rhumerus 410.593 -24.6242 360.213
rradius 70.7533
rwrist -31.9619
rhand 5.56968 -2.71923
rfingers 7.12502
rthumb 30.9132 -390.137
lclavicle 6.67916e-014 -1.03368e-014
lhumerus 12.0061 -42.0406 6.58877
lradius 80.0357
lwrist 7.96813
lhand -18.8333 -707.208
lfingers 7.12502
lthumb 7.46606 42.6403
rfemur -23.0778 6.92437 21.3269
rtibia 38.3925
rfoot -1.38304 -8.47267
rtoes -5.26819
lfemur -13.2048 0.278893 -22.5462
ltibia 32.7137
lfoot 5.89567 9.0772
ltoes 2.98064
2750
root 5.88893 11.6247 21.2461 87.3724 -3.74659 -6.89149
lowerback 2.10591 -4.45333 -0.518137
upperback -6.2029 -6.27354 -1.65056
thorax -7.80352 -3.17351 -0.87439
lowerneck -6.63589 2.34301 -7.63166
upperneck 0.803207 3.27733 25.762
head 0.843992 2.01317 9.44581
rclavicle -1.59028e-014 -2.38542e-015
rhumerus 413.129 -24.0458 359.15
rradius 66.4745
rwrist -30.7799
rhand 4.89548 -2.52313
rfingers 7.12502
rthumb 30.2703 -390.061
lclavicle -1.59028e-014 -2.38542e-015
lhumerus 11.8833 -43.2687 6.52783
lradius 82.2132
lwrist 8.97819
lhand -18.7343 -707.277
lfingers 7.12502
lthumb 7.5616 42.5674
rfemur -22.8323 6.70215 21.3537
rtibia 38.4288
rfoot -1.08144 -8.54471
rtoes -5.1052
lfemur -13.3992 0.0450701 -22.5012
ltibia 32.7877
lfoot 5.81619 9.2495
ltoes 3.33419
2751
root 5.87667 11.6225 21.2391 87.2966 -3.59408 -6.77231
lowerback 2.29413 -4.03341 0.0742971
upperback -6.20671 -5.6897 -2.00404
thorax -8.00362 -2.92963 -1.60691
lowerneck -6.74145 1.83581 -7.5772
upperneck 0.7031 2.56929 26.1088
head 0.961899 1.66679 9.5529
rclavicle -6.36111e-014 -1.59028e-014
rhumerus 415.647 -23.4946 357.979
rradius 62.2678
rwrist -29.1234
rhand 4.16001 -2.25971
rfingers 7.12502
rthumb 29.5685 -389.924
lclavicle -6.36111e-014 -1.59028e-014
lhumerus 11.6643 -44.4428 6.54012
lradius 84.3822
lwrist 9.82315
lhand -18.5286 -707.289
lfingers 7.12502
lthumb 7.76014 42.5489
rfemur -22.5534 6.44053 21.3923
rtibia 38.4835
rfoot -0.748998 -8.66314
rtoes -4.86166
lfemur -13.6648 -0.314765 -22.4496
ltibia 32.8806
lfoot 5.48434 9.50257
ltoes 3.73546
2752
root 5.86409 11.6206 21.2325 87.2292 -3.44043 -6.64403
lowerback 2.51613 -3.63957 0.606875
upperback -6.21937 -5.13898 -2.29456
thorax -8.20531 -2.69843 -2.24413
lowerneck -6.88311 1.34769 -7.55748
upperneck 0.605224 1.89175 26.3635
head 1.08389 1.3376 9.63179
rclavicle 2.8625e-014 -7.95139e-016
rhumerus 418.135 -22.9986 356.69
rradius 58.2869
rwrist -26.982
rhand 3.33166 -1.90747
rfingers 7.12502
rthumb 28.7774 -389.709
lclavicle 2.8625e-014 -7.95139e-016
lhumerus 11.1856 -45.5242 6.78023
lradius 86.5195
lwrist 10.4024
lhand -18.2123 -707.264
lfingers 7.12502
lthumb 8.06545 42.5619
rfemur -22.2466 6.12948 21.4427
rtibia 38.5573
rfoot -0.427331 -8.8067
rtoes -4.57881
lfemur -13.988 -0.78378 -22.3924
ltibia 32.9906
lfoot 4.86881 9.82506
ltoes 4.03286
2753
root 5.85117 11.619 21.2266 87.1739 -3.27526 -6.50581
lowerback 2.7373 -3.23343 1.16932
upperback -6.21842 -4.567 -2.59769
thorax -8.37966 -2.46091 -2.92296
lowerneck -7.04791 0.835087 -7.53639
upperneck 0.453811 1.19097 26.5939
head 1.2016 0.995045 9.69767
rclavicle -7.31528e-014 -5.80451e-014
rhumerus 420.31 -22.6025 355.347
rradius 54.6602
rwrist -24.4482
rhand 2.44009 -1.4603
rfingers 7.12502
rthumb 27.9254 -389.404
lclavicle -7.31528e-014 -5.80451e-014
lhumerus 10.6925 -46.4768 7.05368
lradius 88.615
lwrist 10.7217
lhand -17.6787 -707.256
lfingers 7.12502
lthumb 8.58038 42.5497
rfemur -21.9215 5.75944 21.5157
rtibia 38.6476
rfoot -0.120423 -8.953
rtoes -4.27743
lfemur -14.3607 -1.33865 -22.3187
ltibia 33.1163
lfoot 3.97369 10.2021
ltoes 4.09696
2754
root 5.83774 11.618 21.2217 87.1343 -3.11294 -6.35542
lowerback 2.94821 -2.8132 1.73958
upperback -6.20541 -3.97309 -2.91688
thorax -8.51902 -2.21508 -3.63542
lowerneck -7.21484 0.29967 -7.51141
upperneck 0.243789 0.470267 26.8055
head 1.30893 0.638806 9.75104
rclavicle 1.27222e-014 2.66371e-014
rhumerus 422.097 -22.3218 353.983
rradius 51.475
rwrist -21.7022
rhand 1.49828 -0.93848
rfingers 7.12502
rthumb 27.0247 -389.025
lclavicle 1.27222e-014 2.66371e-014
lhumerus 10.1947 -47.3241 7.35071
lradius 90.6619
lwrist 10.8251
lhand -17.0619 -707.281
lfingers 7.12502
lthumb 9.17561 42.4997
rfemur -21.5914 5.33196 21.5922
rtibia 38.7558
rfoot 0.171469 -9.08699
rtoes -3.97011
lfemur -14.7687 -1.96647 -22.2433
ltibia 33.2495
lfoot 2.81291 10.6357
ltoes 4.0681
2755
root 5.82372 11.6177 21.2182 87.1114 -2.94739 -6.19256
lowerback 3.1494 -2.38774 2.30814
upperback -6.1855 -3.3694 -3.23747
thorax -8.62685 -1.96533 -4.3587
lowerneck -7.4024 -0.260368 -7.52515
upperneck 0.00638629 -0.276341 27.0479
head 1.41948 0.269413 9.81801
rclavicle 9.54166e-015 -1.86858e-014
rhumerus 423.56 -22.1472 352.604
rradius 48.7119
rwrist -18.9608
rhand 0.51443 -0.385704
rfingers 7.12502
rthumb 26.083 -388.615
lclavicle 9.54166e-015 -1.86858e-014
lhumerus 9.64126 -48.0662 7.71013
lradius 92.6539
lwrist 10.7426
lhand -16.4072 -707.373
lfingers 7.12502
lthumb 9.80732 42.379
rfemur -21.2666 4.84957 21.677
rtibia 38.8782
rfoot 0.49618 -9.19447
rtoes -3.57736
lfemur -15.198 -2.63309 -22.158
ltibia 33.3831
lfoot 1.41378 11.1145
ltoes 3.85892
2756
root 5.80903 11.6179 21.2163 87.1061 -2.78588 -6.01653
lowerback 3.34527 -1.97074 2.85221
upperback -6.17529 -2.77626 -3.54738
thorax -8.72346 -1.71996 -5.06354
lowerneck -7.5658 -0.82462 -7.55576
upperneck -0.249471 -1.0233 27.2771
head 1.52278 -0.103393 9.87855
rclavicle 5.725e-014 3.85642e-014
rhumerus 424.801 -22.0401 351.227
rradius 46.3094
rwrist -16.4843
rhand -0.489902 0.126227
rfingers 7.12502
rthumb 25.121 -388.241
lclavicle 5.725e-014 3.85642e-014
lhumerus 8.9439 -48.7193 8.18945
lradius 94.5899
lwrist 10.4616
lhand -15.7169 -707.536
lfingers 7.12502
lthumb 10.4733 42.1829
rfemur -20.9582 4.32705 21.7588
rtibia 39.0119
rfoot 0.899831 -9.27058
rtoes -2.9804
lfemur -15.6321 -3.30265 -22.07
ltibia 33.5062
lfoot -0.159495 11.6197
ltoes 3.47993
